<?xml version="1.0" encoding="UTF-8"?>
<svg viewBox="0 0 547.8244 374.53711" xmlns="http://www.w3.org/2000/svg">
<title>Men</title>
<title>Layer 1</title>
<path d="m303.03027,374.29312c-.33005-.12656-1.27972-1.14209-2.11032-2.25674-1.21277-1.62738-1.82748-2.21252-3.12067-2.97052-1.9801-1.16061-2.79312-1.99283-3.3118-3.38995-.58969-1.58829-.52966-4.53299.13184-6.4711 .3667-1.07434.44577-1.58167.25629-1.64484-.479-.15964-1.23141-1.08652-1.82568-2.24896-.5622-1.09967-.57956-1.31345-.7301-9.00183-.17886-9.13306.26327-17.72788 1.25107-24.31882 1.76556-11.78043 2.01648-14.0062 2.01602-17.88367-.00055-4.90414-.5397-20.29156-.82849-23.64487-.05115-.59412-.16617-2.0524-.25552-3.24066s-.19995-2.58182-.24573-3.0968c-.08707-.97989-.51486-6.34701-.71942-9.02567-.06552-.85818-.22269-2.4245-.34924-3.48074s-.3999-3.48669-.60742-5.40109-.42465-3.8588-.48251-4.32086-.2738-2.46051-.47986-4.44092-.42297-3.97882-.48212-4.44092c-.11484-.89706-.60898-5.70197-1.29605-12.6026-.30102-3.02341-1.29105-9.25736-1.94424-12.24249-.84421-3.85809-1.95438-7.63284-2.38663-8.11475-.09524-.10623-.24475,2.81036-.33218,6.48132-.33502,14.06149-.94159,32.45783-1.52603,46.28256-.37997,8.9885-.50363,30.62756-.19348,33.85452 .15845,1.64853.5661,6.55951.73663,8.87424 .07779,1.05621.35577,2.94659.61768,4.20087l2.13263,10.20593c2.62997,12.58374 2.70102,13.76764 1.66339,27.72186-.47571,6.39758-.50891,6.61768-1.07645,7.13025l-.5856.52893 .60657.8938c.8295,1.22235.91422,1.69589.78177,4.36993-.18802,3.79697-1.23398,5.60446-3.43411,5.93442-1.59088.23856-1.80316.50107-2.13504,2.64023-.34265,2.20874-.51508,2.67465-1.10712,2.99149-.23712.12692-1.9798.57532-3.87256.9964-3.25845.72498-3.76035.77075-9.4426.86108l-6.00122.0954-1.00479-.86392c-1.17697-1.01199-1.75577-2.61438-1.75577-4.86078 0-1.2645.13059-1.63998 1.23975-3.56381 2.35706-4.08826 4.51749-8.58722 4.26804-8.88782-.12909-.15552-1.07007-.33368-2.09106-.39593-3.66974-.22376-6.33319-1.65222-6.62091-3.55096-.06982-.46091-.29746-4.13266-.5058-8.15949s-.6987-13.26273-1.08972-20.5242-.92792-17.36157-1.19315-22.44461c-.54785-10.4989-.64145-11.83838-1.94574-27.8457-.52173-6.40332-1.06122-12.29053-1.19882-13.0827-.4993-2.87427-3.25754-14.57944-4.29901-18.24374-1.16461-4.09741-3.01282-13.06464-5.54141-26.8855-.63809-3.48758-.61182-3.42444-1.49724-3.59906-1.2308-.24274-2.0443-.61771-2.19559-1.01199-.15369-.40048.16316-3.34872.70404-6.55124 .18953-1.12225.56767-3.49872.84032-5.2811s.54152-3.5256.59753-3.87387c.06786-.42212-.05678-.77676-.37389-1.06375-.79031-.71521-2.5589-3.55267-5.06499-8.12607-2.81319-5.13376-2.77033-4.94974-3.55338-15.26212-1.24176-16.35324-1.70512-21.88214-1.93425-23.07913-.45494-2.37677-.96072-11.30341-1.11345-19.6515-.1693-9.25513-.28386-7.93462 2.06168-23.76299 .26411-1.78236.70192-4.75298.97289-6.60136 1.8568-12.66593 2.61891-16.15556 4.22603-19.34975 1.25293-2.4903 2.69618-3.46434 8.14459-5.49681 6.84845-2.55472 18.36859-7.37404 19.82556-8.29379 .56445-.35631 1.29926-1.23965 2.02329-2.43224 .62534-1.03001 2.1058-2.93819 3.28998-4.24043s2.2904-2.70706 2.45828-3.12182 .37149-2.29294.45242-4.17373l.14719-3.41962-.957-1.48063c-.52631-.81435-1.06259-1.87301-1.19174-2.35259-.16629-.61757-.54102-1.08778-1.28436-1.61177-1.28592-.90639-2.24478-2.12656-2.42188-3.08185-.18298-.98731-.57983-4.23482-.74765-6.11832-.3992-4.48075-.57141-5.72484-.91379-6.60136-.72833-1.86461-.4104-10.63366.49167-13.56278 .354-1.14933.74408-1.65454 3.01297-3.90217 1.43344-1.42005 3.40579-3.12139 4.38297-3.78077 1.48962-1.00519 1.95419-1.19888 2.8757-1.19888 .69467,0 1.5321-.21945 2.27609-.59646 3.60867-1.82866 6.47971-2.48021 8.59216-1.94994 .75738.19014 1.97122.41501 2.69739.49974 2.50638.29242 5.36765.87887 6.07654,1.24543 .93619.48413 6.987,6.40212 7.67212,7.50372 .58286.93721.57745.84852.71368,11.67948l.06061,4.81919 .7038,1.01787 .70377,1.01786-.29297,3.73635c-.45636,5.82018-.63715,6.42147-2.80075,9.31462-.69116.92418-1.32608,2.0044-1.41101,2.40048s.01376,1.69235.21924,2.88059c.30624,1.77078.57782,2.50368 1.50577,4.06341 1.2739,2.14126 3.2786,4.41276 5.15372,5.83967 1.51877,1.15572 9.39404,4.6454 12.36469,5.47903l4.25797,1.18951c13.04977,3.62975 13.37659,3.74355 14.78006,5.14703 1.02722,1.02721 1.16846,1.31369 1.64182,3.32986 1.28497,5.47321 2.09625,13.98688 3.37763,35.44389 .9549,15.99082 1.00833,17.88813.90604,32.1666-.10648,14.86075-.15353,15.6528-1.39758,23.52481-1.65576,10.47726-3.34772,15.70773-6.65939,20.58661-.64887.9559-1.80185,2.70691-2.56226,3.89117l-1.38257,2.15323 .63098,6.2485c.34702,3.43668.63013,7.46378.62915,8.94907l-.00183,2.70056h-.70834c-.38959,0-1.23276.11246-1.87372.24994l-1.16538.24991 .04404,4.61108c.08102,8.48529-.28418,16.20578-.97891,20.69434-.34735,2.24448-.73489,5.59317-.86121,7.44156-.30124,4.40927-.55954,7.37808-1.40979,16.20331-.98105,10.18298-1.17554,15.67477-1.37283,38.76794-.22556,26.39819-.22504,27.49197.01956,43.10477 .16095,10.27441.14261,13.46271-.07999,13.87863-.35169.65707-1.69785,1.25488-4.6351,2.05829-3.63446.99411-3.6633,1.4158-.40793,5.96881 2.71515,3.79739 4.01904,6.28265 4.22977,8.06195 .17908,1.51175-.10245,1.97525-2.12714,3.50259-2.08197,1.57053-3.22543,2.00928-6.29001,2.41348-2.94827.38886-10.7243.44199-11.66904.07974zm-5.19388-282.87004c.34476-1.58432.78757-3.85279.9841-5.04103 .90732-5.48699 3.04892-20.80489 2.92593-20.92789-.03061-.03059-1.07755,1.46534-2.32651,3.3243s-2.52292,3.57829-2.83106,3.82073c-.54926.4322-.57971.42855-1.5603-.18666-.55008-.3451-1.87512-1.41953-2.94452-2.38762l-1.94437-1.76016-1.87155,2.05592-1.87149,2.05592 1.47195,2.12413c.80963,1.16827 1.6785,2.64516 1.93091,3.28197s1.12711,2.56213 1.94382,4.27847c2.17795,4.57701 4.20953,9.38912 4.69263,11.11507 .23291.83221.50229,1.42632.59854,1.32027s.45715-1.48909.80191-3.07342zm-19.77124-2.41859c0-1.42118 1.00381-6.40292 2.0734-10.2898 .47443-1.72417 1-3.83525 1.16791-4.69128 .30386-1.54918.302-1.56119-.40125-2.58334-.38858-.5648-.81906-1.34972-.9566-1.74426s-.3284-.71734-.42416-.71734-1.39652,1.35529-2.89059,3.01177c-1.6633,1.84406-2.86343,2.98347-3.0954,2.9388-.20837-.04013-.66586-.64734-1.01666-1.34936-.76883-1.53873-1.17801-2.01571-1.17801-1.37329 0,1.12922 4.09701,13.34765 5.66299,16.88859 .65555,1.48234 1.05838,1.44789 1.05838-.0905zm1.63126-21.58633c1.21918-1.45229 2.28372-2.89513 2.3656-3.2063 .12936-.49149-.58603-1.30119-5.44934-6.16783-3.07907-3.08114-5.67679-5.55354-5.77277-5.49423s-.24789.54234-.33762,1.07338c-.11243.66547-.52969,1.39246-1.34265,2.33923-1.35776,1.58131-1.35962,1.02877.02124,6.2947 .50201,1.91439 1.03812,4.12884 1.19141,4.92101s.89148,2.71977 1.64038,4.28354l1.36176,2.84327 2.05261-2.12312c1.12897-1.16771 3.05017-3.31135 4.26938-4.76365zm18.93005,1.56032c3.19437-4.60135 3.33798-4.95185 3.78735-9.24189 .54282-5.1823.55515-5.06658-.7052-6.60305-.59488-.72522-1.18829-1.31857-1.3187-1.31857s-2.69525,2.33071-5.69977,5.17936-5.89191,5.56525-6.41647,6.0369c-.92545.83208-.94327.87721-.60013,1.51896 .39395.73677 5.27356,5.60263 6.95502,6.93539 .59412.47091 1.2305.82861 1.41422.79488s1.34638-1.51961 2.58368-3.30199zm111.46576,289.34663c-2.61359-.32697-7.6416-1.36798-8.12411-1.68204-.30942-.20142-.78162-.86136-1.04935-1.46664-.44043-.99564-.45831-1.22778-.1875-2.43774 .28879-1.2905.46008-1.50125 4.89316-6.02075 4.55057-4.63937 6.82532-7.47363 7.96823-9.92831 .49838-1.07037.57605-1.59534.57806-3.90765 .00162-1.85245-.08963-2.74408-.29773-2.90906-.16501-.13083-1.11023-.25824-2.10043-.28305s-1.87253-.12006-1.96075-.21158c-.27142-.28162-1.15219-9.21957-1.49881-15.20999-.18079-3.12491-.38617-5.7746-.45639-5.88818-.11844-.19162-.56882-5.44547-1.4776-17.23608-.20477-2.65662-.78851-7.32059-1.30695-10.44214-.51529-3.10263-1.05756-6.72138-1.20502-8.04163-.52963-4.74219-.81747-5.88876-3.76636-15.00308-3.24387-10.02603-8.23459-24.72586-8.50156-25.04071-.09125-.10761-.23892,1.94482-.32819,4.56094s-.26569,5.78275-.39209,7.03702-.33615,3.52271-.46616,5.04102-.51657,5.67718-.85901,9.24188-.71265,9.28992-.82275,12.72263c-.46756,14.5788-.73312,23.37836-.97897,32.43674-.14377,5.29761-.3551,10.0506-.4696,10.56213s-.38907,1.03818-.61008,1.1702c-1.26804.75748-1.35107.94199-2.16608,4.81345-.44324,2.10559-.80896,4.16266-.81265,4.57126-.00833.92017-.47626,1.3551-2.16717,2.01434-.72613.28311-1.9144.80475-2.64053,1.15918-1.27466.62222-1.46124.64447-5.40112.64447-2.81836,0-4.38825-.10202-5.07461-.32977-.92624-.30734-1.08121-.28937-2.28046.26465-.70767.3269-2.25888,1.32343-3.44714,2.21448-3.74625,2.80924-4.18426,2.9501-11.98319,3.85394-5.55658.64395-6.87015.57544-9.92325-.51752-1.37231-.49127-2.19785-1.86578-2.27979-3.79584-.05701-1.34326-.03033-1.409.90146-2.2244 .92133-.80618 8.00061-4.39218 12.90457-6.53677 1.28833-.56342 2.61203-1.23645 2.94153-1.49567s1.31937-1.5163 2.19968-2.79358 1.98602-2.80426 2.45721-3.39328 .82721-1.24487.7912-1.45746 .16095-1.35098.43771-2.52976c2.34851-10.00253 3.12054-13.54605 3.44809-15.82611 .48776-3.39572 1.99042-15.57498 2.19165-17.76364 .17209-1.87244-.42886-11.64633-.94464-15.36316-.1832-1.32028-.83453-5.96521-1.44733-10.32211s-1.54697-11.05429-2.07587-14.88306c-1.4249-10.31558-3.60989-23.12262-5.24207-30.72629l-1.44281-6.7214-.51129-7.92163c-.52054-8.06506-.73004-17.96509-.40472-19.12482 .16486-.58762.04358-.74011-1.45529-1.83032-2.55209-1.8562-5.34161-5.87793-6.44446-9.29105l-.62045-1.92038-.23007-14.64301c-.33737-21.47271.142-32.47176 1.98776-45.60936 1.9054-13.56168 2.29877-15.16174 4.14603-16.86449 1.32285-1.21936 2.92606-2.27941 8.64444-5.71578 5.27649-3.17079 6.97342-4.56692 9.8425-8.09771 1.8793-2.31274 2.29523-3.27776 2.30762-5.35358 .00839-1.40575-.39481-2.41325-1.62338-4.05664-1.05597-1.41248-2.30869-3.87687-2.60706-5.1287-.08295-.34787-.23343-.74051-.33444-.87254-.53146-.69462-1.24594-4.22081-1.89697-9.36192-.40121-3.16865-.90076-6.8414-1.11008-8.16167-.55127-3.47717-.50891-6.58929.11661-8.56317 .83942-2.6489 3.5174-5.74715 6.54312-7.56998 2.17957-1.31303 3.57971-1.56912 9.23746-1.68952l5.07871-.10807 2.00275.87566c4.75565,2.07935 5.26895,2.37844 6.69144,3.89898 3.12247,3.33766 3.76834,4.8959 4.0929,9.87456 .16666,2.55658.31967,3.53528.59595,3.81156 .30441.30443.35516.87662.28036,3.1615-.11093,3.38719-.63446,5.38219-2.3248,8.85887l-1.21185,2.49254v2.49276 2.49276l2.58054,2.7173c1.41928,1.49451 3.28415,3.5751 4.14414,4.62351l1.5636,1.90623 6.42102,1.96524c10.15671,3.1086 11.44437,3.55615 14.40448,5.00668 2.40457,1.17827 2.92227,1.53869 3.74057,2.60416 .52234.68015 1.12305,1.61472 1.33484,2.07681 .55478,1.21039 2.9454,13.60331 3.49615,18.12372 1.39453,11.44642 2.45987,21.74154 2.54611,24.60505 .05368,1.78235.21316,4.02594.3544,4.98575 .27026,1.83655.34735,5.75436.12738,6.47353-.07117.23273-.35254,2.13678-.62524,4.23126s-.66879,4.14258-.88022,4.55145c-.88907,1.71927-9.2085,14.04327-10.88565,16.12546l-.77338.96018 .14304,2.40051c.07864,1.32028.7493,6.55933 1.49033,11.6424 1.17462,8.05747 1.37524,9.98023 1.56546,15.00305 .12,3.16864.46835,7.80316.77411,10.29889l.55597,4.53772-.91635.35996c-1.06592.4187-1.2124.80914-1.62775,4.3389-.4986,4.23688-.16934,8.21948.95563,11.55942 .24616.7308.60733,2.29712.80258,3.48071 1.13037,6.85178 3.64847,21.50873 4.34946,25.31671 .44961,2.44247 1.19769,6.76337 1.66242,9.60196s1.16522,6.24127 1.5567,7.56155c1.73907,5.86533 1.70853,5.61682 1.70242,13.8428-.00305,4.13687-.10648,12.43658-.22989,18.44382s-.23865,16.59338-.25616,23.52481l-.03192,12.60257 .74258,2.28049c.57706,1.77219.80447,3.05627 1.02032,5.76117 .1528,1.9144.2012,3.98492.10761,4.60114-.2186,1.43903-1.22827,2.82651-2.84012,3.90295-.69708.46552-1.50571,1.021-1.79691,1.23441s-.96845.41058-1.505.43817c-.91348.04694-1.07275.17307-2.50449,1.98373-1.84598,2.3345-3.76495,4.23083-5.06299,5.00326-1.06375.63306-4.32028,1.73984-7.78217,2.64493-2.25415.58932-5.14658.88236-6.74081.68292zm-208.8428-10.31625c-.33008-.05893-2.16646-.3223-4.08084-.58527-3.10365-.42633-3.69904-.58679-5.49615-1.48132-1.10849-.55176-3.1069-1.80225-4.4409-2.7789-3.05725-2.23825-3.02501-2.22244-6.65416-3.26044-3.65918-1.04654-5.39919-1.81445-6.34352-2.79944-.67334-.7023-.71437-.86334-.79208-3.10895-.08768-2.53247.30041-4.47095 1.18341-5.91125 .2524-.41168.45888-.81549.45888-.89737s-.43933-.21909-.9763-.30496c-1.46643-.23453-1.62828-.50464-1.37215-2.29019 .27707-1.93155.05504-4.41824-.58421-6.54272-.47983-1.59476-.49345-1.99219-.33809-9.84204 .11675-5.89963.05823-10.55588-.20996-16.7019-.36139-8.28171-.55681-40.29581-.24905-40.79382 .07341-.11874.01717-4.78854-.12495-10.37732-.19844-7.80243-.3952-11.39246-.84758-15.46423-.32402-2.91656-.64514-5.87396-.71352-6.57208s-.60616-3.22684-1.19498-5.61945-1.07062-4.53281-1.07068-4.75607-.09784-.46631-.21733-.54016c-.1221-.07547-.16646.25992-.10132.76602 .06372.49512-.11289,2.14249-.39246,3.66077-1.03963,5.64578-1.21532,6.63721-1.4464,8.16168-.13008.85818-.33647,2.15445-.45868,2.88059-.30145,1.79117-2.54781,10.48465-4.74513,18.3638-.99409,3.5647-1.96439,7.07544-2.15613,7.80157s-1.5226,5.64117-2.9574,10.92224c-3.55519,13.0856-3.86024,14.24262-4.08244,15.48319-1.30804,7.30383-1.98146,11.74438-2.30301,15.18619-.2126,2.27576-.52594,5.48804-.6963,7.13837s-.32251,5.91724-.33809,9.48196-.09897,9.50595-.18536,13.2027c-.14395,6.16132-.194,6.74753-.60069,7.03507-.39418.27866-.4437.6756-.4437,3.55649 0,1.98795-.10719,3.44574-.27705,3.76718-.15242.28839-.7227.95642-1.2673,1.48453s-1.77701,1.84485-2.73866,2.92612l-1.74847,1.96591-1.26749-.04553c-1.23445-.04434-1.30679-.00915-2.77415,1.34866-2.35085,2.17542-4.66226,3.69543-6.08269,4.00006-1.38928.29794-4.46206.16281-8.20918-.36102-1.32027-.18457-3.01649-.38974-3.76939-.45596-2.21301-.19464-2.90225-.5993-3.53801-2.07721-.43152-1.00308-.52272-1.55423-.42068-2.54276 .15469-1.49878.56075-2.2843 2.32463-4.49716 .72745-.91257 1.80872-2.27542 2.40285-3.0285s1.98132-2.43689 3.08266-3.74182c1.94472-2.30423 3.55177-4.93131 3.28282-5.36646-.07282-.11783-.72958-.34787-1.45952-.5112s-1.36244-.35974-1.40561-.4364 .06451-1.48966.2393-3.14002c.40909-3.86221.5047-22.71726.1467-28.92593-.14465-2.50851-.33278-8.44971-.41811-13.2027-.16284-9.07578-.19347-8.48431 1.09378-21.12433 1.03282-10.14142 1.31752-14.77335 1.54927-25.20517 .13361-6.01474.49042-14.47315.74145-17.57785l.12087-1.49451-.7917-.33081c-.43543-.18195-1.69164-1.01999-2.79156-1.86231-2.36417-1.81055-3.23312-3.24536-3.65372-6.03299-.29062-1.92627-.33493-7.72607-.08504-11.13461l.16022-2.18561-.98282-.15717c-.54056-.08646-1.36238-.33816-1.82629-.55939l-.84349-.40222-.00037-12.73816c-.00018-7.00598-.0694-19.11145-.15381-26.90106-.14858-13.71133.0876-26.68334.63374-34.80714 .12427-1.84839.28635-4.71097.36017-6.3613 .28018-6.26307.64725-10.83347 1.22423-15.24312 .32822-2.50852.80881-6.28929 1.06796-8.40173 .73183-5.96563 1.16121-8.74149 1.42972-9.24323 .47537-.88824 3.83102-2.86389 13.44206-7.91406 7.34183-3.8578 9.44734-5.04907 13.92285-7.87728 6.30066-3.98159 6.88399-4.36723 7.26216-4.80118 .2007-.23028.49603-1.44259.67285-2.76194 .2607-1.94534.26041-2.50507-.00172-3.24066-.44601-1.25151-1.17-2.20945-1.66982-2.20945-.23723,0-.94084-.66338-1.59129-1.5003-.94994-1.22224-1.29265-1.94522-1.8492-3.9008-.89803-3.1555-1.14937-6.54905-.55248-7.46 .48924-.74669.51811-1.01587.82193-7.6631 .29694-6.49696.68625-7.88827 3.00311-10.73245 1.23926-1.52132 3.73138-3.48896 4.67323-3.68971 .34845-.07427 1.65976-.51843 2.91402-.98703l2.28047-.85199 3.96082.13851c7.14177.24975 9.45538,1.1411 13.46335,5.18691 3.31926,3.35061 3.92125,4.50858 3.93234,7.56404 .00432,1.19432-.13677,3.63431-.31355,5.42222-.31802,3.21629-.31573,3.26038.21487,4.15968 .51178.86744.52866,1.06426.36923,4.3108-.26231,5.34229-1.13043,8.32288-2.42409,8.32288-.64346,0-.88727.58976-1.29005,3.12064-.46883,2.94586-.58499,5.64481-.28241,6.56165 .30878.93557 2.03976,2.63325 4.93411,4.8391 1.53856,1.17257 2.43999,1.56465 10.68219,4.64634 4.95102,1.85114 11.10622,4.32475 13.67821,5.49689 3.93875,1.79501 4.74644,2.25117 5.12077,2.8921 .57533.98511 3.67335,11.76901 3.87593,13.49169 .15311,1.30206.62579,4.76153 1.09878,8.04165 .13324.92419.29401,2.11244.35722,2.64054s.27823,2.09443.47786,3.48072 .46907,3.27666.59888,4.20086c.64201,4.57215 1.34903,18.76509 1.79962,36.12742 .20045,7.72357.47235,17.82364.6042,22.44458s.30997,12.42157.39578,17.33475l.15604,8.93304-.69891.26977c-.38437.14841-1.32671.22601-2.09407.17246-1.09403-.07636-1.43674-.01608-1.58765.27911-.10584.20706-.26335,1.59634-.35007,3.08731-.10634,1.82916-.31544,3.11737-.64294,3.96082-.26694.6875-.68825,2.3302-.93626,3.65048-.8269,4.40225-.89993,4.57974-2.90552,7.06131-2.5302,3.13068-3.25299,3.77817-6.58534,5.89929-1.58432,1.00851-2.96446,1.91589-3.06696,2.01642s-.05614,3.22977.10309,6.95389c.35548,8.31415-.0564,30.68411-.64961,35.28192-.19864,1.5397-.52626,4.09573-.72803,5.68005-.56255,4.41714-1.00993,7.42712-1.5342,10.32211-.26302,1.4523-.64343,3.66675-.84535,4.92102s-.52679,3.14462-.72189,4.20084-.45889,2.89261-.58624,4.08084c-.25288,2.35989-.7933,6.84308-1.34553,11.16229-.41153,3.21863-.78168,10.05454-1.01906,18.81915l-.16838,6.21655-1.14023.33203c-1.25778.3663-1.25836.36706-.86134,1.11346 1.23964,2.33063 5.9216,6.45428 12.19176,10.73804 3.32556,2.27194 5.42915,3.94315 6.09157,4.83942 .29185.3949.52374,1.17105.59055,1.97669 .10298,1.24185.06189,1.3714-.64444,2.03122-.9185.858-4.08937,2.10352-6.24246,2.452-1.76918.28638-5.82172.46939-6.74472.30463zm328.14719-10.18979c-2.05652-.65387-2.52277-.71616-4.74841-.63437-1.54938.05695-2.5932-.00644-2.80426-.17032-.18481-.14352-.40393-.85513-.48669-1.58127-.29724-2.60583-.59314-4.16769-.83569-4.41022-.14221-.14218-.2467-1.49768-.2467-3.19934v-2.95261h-.83472c-1.33221,0-1.59509-.64523-1.7345-4.2572-.09699-2.51395-.24713-3.47388-.83563-5.34476-.8504-2.7041-.89966-3.82376-.23285-5.29129 .27246-.59973.56305-1.51791.64575-2.04044 .14673-.92639.1048-.99771-1.69049-2.87039l-1.841-1.92038 .14612-3.96082c.08038-2.17844.24139-4.61963.35779-5.42483 .1416-.98001.11652-2.02377-.07611-3.1572-.23828-1.40335-.43976-1.86173-1.17676-2.67752-.48914-.54138-.89703-1.01105-.90643-1.04367-.01917-.06656-.19376-1.63489-.90823-8.1601-.27112-2.47498-.55273-4.85147-.62585-5.28107s-.23547-2.11694-.36047-3.74963c-.21729-2.83792-.26868-3.0387-1.1676-4.56094-1.29047-2.18527-1.14179-1.47852-1.82532-8.6738-.1958-2.0614-.83386-6.07599-1.43079-9.00183-1.19702-5.86661-1.49518-7.75263-2.6571-16.80347-.62317-4.85385-1.04297-7.14841-1.88867-10.32211-1.20019-4.504-3.7597-15.20447-3.7655-15.74216-.00702-.64496-.41132-1.05405-.75824-.76709-.39526.327-.14069,10.28107.4162,16.2692 1.01874,10.95309 1.2912,14.36243 1.52564,19.08392 .43768,8.81802.75659,13.52454.98407,14.52298 .1203.52811.75189,2.9046 1.40362,5.2811 .87848,3.20361 1.28247,5.23178 1.56238,7.84372 .20764,1.93759.76984,6.09644 1.24921,9.24188 .83612,5.48434.86664,5.90625.74323,10.28l-.12872,4.56091 .96924,3.00061 .96906,3.00064-.10016,3.72076c-.0863,3.20767-.17072,3.85654-.612,4.7055-.28149.54163-.46893,1.18976-.4165,1.44031s.26965,1.19309.48285,2.09454c.33972,1.43741.35632,2.33798.13501,7.3215-.13867,3.12537-.18225,5.94446-.09686,6.26462 .12537.46979-.01093.72461-.70593,1.32028l-.86127.73813-.36029,4.60635c-.2782,3.55734-.4729,4.86118-.85523,5.72534l-.495,1.11899-3.1264-.0842c-2.76849-.07452-3.14111-.03775-3.25488.32114-.07074.2229-.50522.73602-.96561,1.14023l-.83713.73496h-6.31494c-3.47327,0-7.80249-.07135-9.62054-.15857l-3.30557-.15851-.45956-.74167c-.38306-.6182-.43332-1.0014-.30209-2.30197 .24216-2.40002 1.1431-3.95108 3.38397-5.82578 2.08981-1.74835 5.37665-5.06644 5.78537-5.84042 .16568-.31375.21234-1.14502.12369-2.20279-.12476-1.48804-.20767-1.71527-.66806-1.83081-1.57349-.39493-1.9451-5.22794-.93716-12.18814l.37112-2.56281-.95227-1.63806c-.52374-.90097-1.47073-3.0964-2.10446-4.87878l-1.15216-3.24063 .05579-3.97223 .05576-3.9722-1.24173-4.30951c-1.18234-4.10336-1.2431-4.45297-1.27032-7.31009-.02151-2.25378.07526-3.32513.38882-4.30444 .6972-2.17743.57291-3.14557-.64188-5.00034l-1.05936-1.61746-.62701-4.56091c-.34485-2.50854-.84119-6.07327-1.10297-7.92163s-.68866-5.30508-.94861-7.68158-.74796-5.77445-1.08456-7.551c-.87332-4.60925-2.97543-13.18256-3.47525-14.17349-.23309-.46207-.93546-3.27066-1.56082-6.24127-1.08048-5.13245-2.25815-10.33859-2.7829-12.30252-.19562-.73209-.35117-.90018-.83298-.90018-.32587,0-.79672.24304-1.04642.5401l-1.01859,1.21005c-.45129.53537-.79568.68295-1.71494.73477-.87683.04941-1.30472.21918-1.80035.71423-2.11353,2.11099-2.66364,2.42477-4.42563,2.52435-1.11145.06281-2.19626-.04553-3.21362-.32092-1.40463-.38019-1.68237-.57233-3.25177-2.24902-2.71118-2.89658-2.59982-2.56281-2.60086-7.79605-.00085-4.22568-.03235-4.54858-.48004-4.92099-.47198-.39264-.47998-.74307-.53662-23.56329-.06528-26.30393-.01038-27.59299 2.0033-47.04966 .26648-2.57452.68692-7.27348.93433-10.44214s.61124-7.32751.80847-9.2419 .42013-4.29088.49539-5.28108c.89026-11.71717 1.11649-13.1083 2.42401-14.90644 .98496-1.35448 6.09909-5.91128 8.21109-7.31622 1.0881-.72385 3.73731-2.37483 5.88711-3.66888 5.84955-3.52102 7.32852-4.54561 9.22784-6.39275l1.73019-1.68266-.20374-2.61774-.20374-2.61772-1.20038-1.10304c-1.46701-1.34804-2.14392-2.46816-2.34149-3.87468-.17697-1.26009-.40115-1.90932-1.47601-4.27437-1.56625-3.44632-2.01617-5.64609-2.23331-10.91941-.28476-6.91567.17639-9.12281 2.50546-11.99126 .5581-.68734 1.08402-1.51976 1.16876-1.84983 .28601-1.11439 1.06027-2.07346 3.28204-4.06552 2.62415-2.35283 3.85803-2.95247 7.15338-3.47638 2.22638-.35395 2.75232-.3559 5.86905-.02166 4.63037.49656 5.6131.81048 6.96185,2.22387 .59772.62636 1.37051,1.33375 1.71732,1.572s1.62119,1.75055 2.83218,3.36068 2.29053,2.98821 2.39905,3.06239c.51416.35118 1.39557,1.81911 1.39557,2.32419 0,.31097.1795.91111.39893,1.33364s.65509,2.05458.9682,3.62677c.55219,2.77228.5578,2.9153.18555,4.74039-.45978,2.25422-1.81769,6.37253-2.38825,7.24339-.28754.43886-.44934,1.35369-.54443,3.07909-.13287,2.41303-.15021,2.47128-1.01611,3.42895-1.38416,1.53082-1.68475,2.09072-1.68475,3.13812 0,.83596.14716,1.11767 1.0202,1.95354 2.99365,2.86607 4.89239,3.78901 14.32303,6.96248 8.85651,2.98027 18.29761,6.47356 19.28741,7.13654 1.3905.93143 2.23853,2.51382 2.67609,4.99424 .92499,5.24228 1.52942,7.38615 4.83533,17.15069 5.27521,15.58166 6.75146,20.29109 7.04596,22.47745 .1463,1.08597.48242,4.94508.74713,8.57584s.53882,6.98028.60938,7.44341c.21082,1.38297-.34686,12.543-.8396,16.80154-.25195,2.17844-.63348,5.63516-.84778,7.68158-.9704,9.26886-3.24939,26.00696-3.5871,26.34464-.07282.07275-.37732.26004-.6767.41623s-.52234.39511-.49548.53101c.09766.49332-.42114,4.77481-.67071,5.53583-.17352.5289-.59064.97717-1.29199,1.38818-1.07544.63022-3.24719,2.78436-3.24719,3.22083 0,.1373-.3747.6644-.8327,1.17133-.58264.64484-1.48395,1.20062-3.00061,1.85025l-2.16791.92853 .00061,4.2117c.00171,13.18933 1.4809,32.66446 3.36536,44.30927 1.1521,7.11883 1.22455,7.42706 2.13281,9.0809 .8714,1.58688 2.3985,6.16522 3.60541,10.80951 .9516,3.6619 1.27234,9.31094 1.32312,23.30911 .03967,10.95535.11237,13.40497.4693,15.81897 .2323,1.57098.60858,5.39435.8363,8.4964l.41388,5.64008-1.03241.45666c-.96521.42697-1.03241.51837-1.03241,1.40509 0,.87607.16931,1.11777 2.22052,3.1694 1.80243,1.80289 2.48163,2.69998 3.60742,4.7652 1.35828,2.49164 2.03851,4.77716 1.72015,5.78-.20227.63748-1.68524,1.37897-4.04675,2.02335-1.89929.51822-2.81683.60867-7.10199.70013l-4.92102.10504-2.28052-.7251zm-463.53496-.4574c0-.17157-.23256-.51364-.51682-.76016-.37376-.32416-.41821-.44824-.16061-.44824 .40077,0 1.0858,1.11194.83783,1.35992-.08822.08823-.16041.02002-.16041-.15152zm37.34309-.55862c.09013-.23672.22437-.36996.29828-.29608s.00015.26761-.1639.43048c-.23707.23529-.26465.2077-.13438-.1344zm-59.66766-.15552c0-.1398.10803-.25421.24005-.25421s.24005.04764.24005.10587-.10802.17261-.24005.25421-.24005.03397-.24005-.10587zm41.9286.06583c-.08802-.08798-.16004-2.0864-.16004-4.44092 0-3.86566.04367-4.32452.45009-4.73096 .24757-.24753.59864-.50092.78016-.56305 .22721-.07776.01215-.4325-.69014-1.13846-.98118-.98627-1.02021-1.0827-1.02021-2.51987 0-.82193-.0706-2.80765-.15692-4.41269l-.15689-2.9183h-.89072-.89071l-1.83003-4.88028c-1.77553-4.73499-2.66488-8.07648-2.90352-10.90912-1.28894-15.30002-1.86182-42.26593-1.13836-53.58481 .73566-11.51004.73134-11.00473.10773-12.6026-3.87192-9.92078-5.28972-13.37036-8.87959-21.60443-4.16524-9.55377-5.02485-11.27197-6.18426-12.36118-1.12732-1.05908-1.18611-.62921-.84373,6.16892 .41708,8.2814.19373,38.67593-.33926,46.16049-.32783,4.60385-.32897,5.88666-.01046,11.88242 .19638,3.69675.4076,7.13287.46941,7.6358s.28136,2.93341.48793,5.40109c.38232,4.56747.49707,5.1814 1.91523,10.24786 2.01034,7.18204 4.19217,16.23608 4.34013,18.01041 .17214,2.0639-.0789,4.54965-.90394,8.95062l-.50914,2.71603-1.4546,1.41898-1.45463,1.41901-.09909,3.18079c-.06638,2.13001-.20704,3.34558-.42584,3.6795-.22769.3475-.26463.7153-.12183,1.21323 .1127.39298.22588,1.84549.25153,3.22775 .03792,2.04688.12737,2.60226.48196,2.99329 .23946.26407.55953.72098.7113,1.01541 .26376.51172.24134.52853-.51014.38229-.4323-.08411-.86537-.27093-.96237-.41522-.10771-.16022-.17778-.09674-.18005.16303-.00324.37634-.17658.40933-1.50398.28629-.82517-.07651-3.01262-.13055-4.861-.12012l-3.84079.02136c-5.01073.02466-6.34109-.02591-6.47723-.24622-.24379-.39447-.60233-.04224-.42876.42117 .13362.35669.10109.36899-.24069.09109-.25988-.2113-.6554-.2641-1.15519-.15436-.45969.10098-.70447.07706-.61948-.06046 .08135-.13162-.89171-.3396-2.31045-.49374-2.03113-.22073-2.52296-.35523-2.87108-.78507-.23105-.28531-.42009-.71561-.42009-.95627s-.34608-.99429-.76905-1.67474c-.68658-1.10446-.77027-1.43442-.78015-3.07654l-.01112-1.83942 1.42995-1.80038c.78647-.9902 2.05427-2.46463 2.81733-3.27652 1.60188-1.70435 1.72649-1.97421 2.22334-4.81461 .48479-2.77161.46728-3.9266-.118-7.77713-.73765-4.85278-1.04458-5.75095-2.53661-7.42307-.70264-.78751-1.4045-1.66898-1.55965-1.95889-.42619-.79629-.71994-7.89426-.64388-15.55817 .0647-6.52206-.22318-10.90225-1.12878-17.17526-.05812-.40256-.32815-3.04907-.60006-5.88123s-.54817-5.47336-.61395-5.86942-.21894-2.34049-.34042-4.32089c-.1434-2.33728-.42784-4.44305-.81065-6.00125-.78985-3.21512-2.80812-10.74188-2.93575-10.94836-.05605-.0907-1.52391-5.44202-3.26191-11.89181l-3.16001-11.7269-.03828-4.56094-.03829-4.56091-3.26405-.15353c-1.7952-.08444-3.36716-.21726-3.49321-.29517s-1.24229-.29669-2.48048-.48618c-2.42416-.37097-4.23678-1.05414-5.03542-1.8978-.27493-.29041-1.35124-1.79758-2.39181-3.34924-1.55577-2.31995-2.02661-3.25467-2.64989-5.26093-.67922-2.18625-.7454-2.66003-.63707-4.5603l.12091-2.12058h-1.03538-1.03535l-.13232-1.02023c-.07276-.5611-.29929-2.9646-.50341-5.3411s-.41518-4.64493-.46908-5.04102-.273-2.34049-.48696-4.32089-.42182-3.87079-.46192-4.20087c-.31541-2.59579-.40946-3.81293-.6215-8.04166-.13238-2.64053-.30699-5.79184-.38799-7.00293-.20416-3.05173-.24074-13.21869-.05125-14.24139 .0856-.4621.33506-2.40652.55435-4.32089s.44503-3.80479.50161-4.20087c.54056-3.7836 1.06181-18.01334 1.06684-29.12489 .00212-4.63839.35691-7.75436 1.90434-16.7245 .69444-4.02544.71549-4.09084 1.551-4.81755 1.19598-1.04024 4.72026-2.94202 8.78916-4.74283 9.84992-4.35935 20.96051-9.92211 22.03578-11.03268 .76487-.78999.79293-.88905.83717-2.9548 .04253-1.98714-.00888-2.24242-.73151-3.63103-.93755-1.80174-2.21735-5.24053-2.21735-5.95802 0-1.1535-.4846-1.97118-1.26012-2.12628-.41361-.08273-1.08505-.51398-1.49208-.95835-.96958-1.05856-1.81813-4.46185-1.81261-7.26995 .00348-1.76962.0592-2.0065.56549-2.40474 .52508-.41305.57258-.66363.73054-3.85477 .35575-7.18736.82222-9.28423 2.69059-12.09467 1.92414-2.89431 2.3545-3.26809 5.48911-4.76727 4.6349-2.21674 4.78297-2.25593 7.88114-2.08589 6.48666.35599 11.37019,2.08238 14.4419,5.10542 1.40201,1.37979 2.10577,2.694 3.23138,6.0345 .73496,2.18116.74526,2.27745.70786,6.62175-.03787,4.40081-.03684,4.41001.59775,5.34392 .71571,1.05324.77714,1.84263.39923,5.12979-.21288,1.85174-.33098,2.16743-1.37846,3.68477-1.74696,2.53059-2.00062,3.12065-2.21078,5.14292-.10687,1.02832-.38226,2.5065-.61199,3.28487-.63584,2.15453-.41948,3.43629.90802,5.37915 2.00568,2.93541 2.84957,3.41796 8.09061,4.62634 1.65034.38049 7.96964,2.0364 14.04289,3.67979 10.34599,2.79958 11.08012,3.03363 11.64238,3.71176 .76302.92021 2.74218,5.449 4.21003,9.63358 1.07375,3.06096 1.15435,3.46696 1.45367,7.32149 .29756,3.83218.57578,5.70181 1.76815,11.88244 .53488,2.77248 2.08971,11.96394 2.88309,17.0435 .27839,1.78236.77971,4.66412 1.11404,6.40391 .59969,3.12062.60663,3.29216.51407,12.7226l-.09381,9.55936-2.32389,13.64975c-1.27812,7.50732-2.32387,13.68622-2.32387,13.7308s-.60806.11353-1.35122.15311l-1.35121.07199 .00204,1.32028c.00111.72613.07972,2.77856.17468,4.56091 .16974,3.18567-.15219,7.01566-.84737,10.08209-.25362,1.11865.19984,4.09473 3.10899,20.40417 .52985,2.97061 1.1312,6.37329 1.3363,7.56155s.53465,3.0246.73232,4.08084c.35663,1.90546.63791,4.31293 1.55661,13.32272 .2625,2.57452.59824,5.59915.74606,6.72138 .40184,3.05048.59483,56.92584.21556,60.17459-.19678,1.68561-.57609,3.24417-1.22374,5.02832-.68863,1.89706-.93857,2.95847-.93857,3.98587 0,.77017-.28648,2.54364-.63663,3.94101-.60289,2.40598-.67802,2.55801-1.41653,2.86658s-.76951.37186-.58643,1.18372c.10642.4718.48138,1.44626.83324,2.16544 .6037,1.23392 1.19778,1.85107 4.99727,5.19153 1.18057,1.0379 2.09016,3.4447 2.09016,5.53052 0,1.43744-.02269,1.48837-1.10608,2.48306-.73808.67761-1.40898,1.0639-2.01646,1.16107-1.86622.2984-3.44797,1.09073-4.1545,2.08106-.37164.5209-.86315.94708-1.09223.94708s-.54615.12964-.70459.28806c-.22404.22403-.28806.19739-.28806-.12003 0-.47794-.26662-.52554-.67213-.12003-.21729.21732-.28807.21875-.28807.00595s-.17158-.21689-.63341-.04132c-.34836.13248-.69043.18381-.76014.11411s.01728-.12674.19331-.12674 .26305-.05704.19333-.12674-.41178-.01837-.76016.11408c-.47068.17896-.63435.16525-.63709-.05331-.00235-.18884-.08826-.16525-.24005.06598s-.30349.27057-.41641.12003c-.24557-.32742-2.78126-.37784-2.97819-.0592-.10993.17786-.3821.16309-.89304-.04858-.54133-.22421-.92517-.23807-1.45717-.05264-.47299.16489-.77286.16986-.86893.0144s-.24751-.15369-.43958.00571c-.31734.26337-2.25799.22598-2.70808-.05219-.15218-.09406-.5345-.073-.84959.04681-.34872.13257-.73107.12927-.97716-.00845-.257-.14383-.56879-.13815-.85597.0155-.24844.13297-.5347.16455-.63613.07016s-.1306.12549-.06486.48856c.12764.70471.11561.74963-.13392.50009zm9.63562-2.60687c-.07391-.07388-.20815.05933-.29829.29608-.13026.3421-.1027.36966.13438.13437 .16405-.16284.23781-.35654.1639-.43045z"/>
</svg>
